<?xml version="1.0" encoding="UTF-8"?><svg id="Layer_2" xmlns="http://www.w3.org/2000/svg" viewBox="0 0 398.14 78.71"><defs><style>.cls-1{fill:#002e91;}.cls-2{fill:#0c9edc;}</style></defs><g id="Layer_1-2"><g><path class="cls-1" d="M145.91,38.75c0-14.53,10.84-26.15,25.3-26.15,9,0,16.3,4.23,19.84,11.92l-9.23,6c-2.46-5.69-6.46-8.31-11.38-8.31-7.61,0-12.3,6.46-12.3,16.53s4.69,16.54,12.3,16.54c4.92,0,8.92-2.62,11.38-8.31l9.23,6c-3.54,7.69-10.84,11.92-19.84,11.92-14.46,0-25.3-11.61-25.3-26.15Z"/><path class="cls-1" d="M194.58,47.36c0-9.38,8.61-17.53,18.61-17.53s18.69,8.15,18.69,17.53-8.61,17.53-18.69,17.53-18.61-8.15-18.61-17.53Zm26.53,0c0-5.15-3.46-8.84-7.92-8.84s-7.84,3.69-7.84,8.84,3.46,8.84,7.84,8.84,7.92-3.62,7.92-8.84Z"/><path class="cls-1" d="M238.95,13.37h9.77l17.23,26.76,17.3-26.76h9.15v50.76h-10.38v-31.22l-13.38,20.76h-5.84l-13.38-20.69v31.15h-10.46V13.37Z"/><path class="cls-1" d="M301.17,19.83c0-3.38,2.61-6,6.08-6s6,2.61,6,6-2.61,6-6,6-6.08-2.61-6.08-6Zm.77,10.77h3.61c3.15,0,5-.08,6.92-.62v34.15h-10.54V30.59Z"/><path class="cls-1" d="M320.85,30.59h3.61c3.77,0,5.23-.08,6.92-.62v6.15c2.31-4.08,6.69-6.31,12-6.31,7.08,0,11.54,4.08,11.54,12.23v22.07h-10.46v-19.76c0-4.15-1.69-5.61-4.92-5.61-4.92,0-8.15,3.38-8.15,9.23v16.15h-10.54V30.59Z"/><path class="cls-1" d="M360.99,47.36c0-9.61,7.61-17.53,16.07-17.53,4.77,0,8.92,2.92,10.61,6.77V13.37h3.61c3.69,0,5.23-.15,6.84-.62v51.37h-10.46v-6c-1.69,3.85-5.84,6.77-10.61,6.77-8.46,0-16.07-7.92-16.07-17.53Zm26.99,0c0-5.15-3.84-8.84-8.07-8.84-4.46,0-8.15,3.69-8.15,8.84s3.69,8.84,8.15,8.84c4.23,0,8.07-3.62,8.07-8.84Z"/></g><g><path class="cls-1" d="M4.26,50.2c4.33-5.16,9.61-9.84,15.68-12.93,23.18-12.2,47.11,4.43,65.39,18.1,6.78,4.98,13.61,10.2,20.92,14.47,4.06,2.2,10.89,6.24,15.33,3.04,2.47-1.78,3.01-5.2,3.12-8.24C125.97,29.84,96.91,0,62.21,0c-15.34,0-30.37,5.75-41.78,15.99C9.07,26.18,1.72,40.42,.03,55.58c-.01,.11-.02,.23-.03,.35,1.29-2.02,2.76-3.93,4.26-5.73"/><path class="cls-2" d="M24.3,42.54c-5.23,2.32-9.86,5.87-13.96,9.88-.02,.02-.05,.04-.07,.07-5.13,4.95-7.13,12.68-5.68,19.61,.43,2.07,1.47,4.1,3.22,5.28,1.64,1.12,3.73,1.38,5.71,1.32,9.65-.28,17.94-6.79,25.88-11.56,6.22-3.74,12.11-8,18.18-11.99,2.64-1.74,5.37-3.45,8.19-4.99-12.96-8.04-26.9-14.03-41.46-7.61"/></g></g></svg>